<?xml version="1.0" ?><!DOCTYPE svg  PUBLIC '-//W3C//DTD SVG 1.1//EN'  'http://www.w3.org/Graphics/SVG/1.1/DTD/svg11.dtd'><svg enable-background="new 0 0 100 100" height="100px" id="Layer_1" version="1.1" viewBox="0 0 100 100" width="100px" xml:space="preserve" xmlns="http://www.w3.org/2000/svg" xmlns:xlink="http://www.w3.org/1999/xlink"><g id="The_patient_bask_in_the_sun"><g><path d="M87.979,49.452c0.013-0.073,0.018-0.148,0.014-0.224l-0.491-9.672c-0.008-0.167-0.058-0.328-0.146-0.471    c-0.4-0.654-1.627-1.786-3.799-1.637c-0.443,0.032-1.119,0.102-1.898,0.188c0.453-0.563,0.781-1.239,0.918-1.99    c0.052-0.288,0.074-0.542,0.07-0.784l-0.004-5.512c0-0.301-0.039-0.568-0.09-0.811c0.021-0.157,0.018-0.318-0.043-0.478    c-0.047-0.124-0.117-0.231-0.203-0.324c-0.642-1.681-2.252-2.823-4.097-2.823c-2.153,0-3.997,1.538-4.381,3.656    c-0.028,0.15-0.032,0.292-0.042,0.436c-0.014,0.04-0.036,0.072-0.044,0.114c-0.027,0.14-0.019,0.277,0.015,0.408l0.004,5.338    c-0.004,1.387,0.663,2.683,1.786,3.523c-0.721,0.095-1.2,0.159-1.253,0.167c-0.21,0.01-2.1,0.168-3.602,2.714    c-1.074,1.829-2.532,4.646-3.002,5.562L65.372,48h-0.519l-0.849-4.397C63.941,42.158,62.622,41,61.007,41h-9.421l0.04-0.832    c0.019-0.374-0.175-0.727-0.499-0.914l-2.37-1.37c-0.475-0.274-1.08-0.115-1.36,0.354l-8.19,13.75    c-0.25,0.419-0.16,0.957,0.211,1.272l3.381,2.88c0.29,0.246,0.692,0.308,1.04,0.157L47,54.938v9.353    c0,0.247,0.056,0.481,0.125,0.71H36v20h-2v2h2.007h2.949h2.002h2.049h2h2.951H51v-2h-2.941l0.7-14h2.281    c-0.567,1.609-0.883,3.381-0.883,5.24c0,7.361,4.926,13.352,10.981,13.352c4.125,0,7.723-2.783,9.6-6.884l1.65,6.537    C72.5,89.688,72.9,90,73.357,90h2.957c0.289,0,0.564-0.124,0.754-0.343c0.19-0.22,0.275-0.509,0.234-0.796l-2.248-15.74    l3.316-6.794l-0.637,7.547c-0.008,0.099-0.002,0.224,0.02,0.319l3.135,14.599c0.096,0.446,0.483,0.87,0.939,0.888l3.27,0.32    c0.016,0,0.034,0,0.049,0c0.556,0,1.01-0.641,1.01-1.197c0-0.119-0.021-0.429-0.059-0.535L83.96,73.611l2.036-12.896    L87.979,49.452z M43,85h-1.941l0.7-14H43V85z M43,69h-3.144l-0.8,16H38V67h5V69z M85.794,45.396l0.085,1.67    c-0.234-0.018-0.475,0.037-0.677,0.19l-4.731,3.574L71,54.009V53.53l7.996-4.609c0.1-0.058,0.189-0.132,0.266-0.22l6.514-7.679    L85.794,45.396z M80.646,34.881c0.002,0.144-0.014,0.273-0.039,0.41c-0.207,1.137-1.232,2.005-2.389,2.021    c-0.14-0.001-0.277-0.041-0.414-0.067l1.188-1.808c0.116-0.178,0.174-0.389,0.163-0.601l-0.215-4.229l1.699-0.718L80.646,34.881z     M78.223,26.916c0.778,0,1.481,0.381,1.93,1.011l-2.348,0.991l-1.898-0.387C76.254,27.575,77.167,26.916,78.223,26.916z     M76.949,30.784l0.195,3.827l-1,1.521c-0.24-0.377-0.383-0.808-0.381-1.262l-0.004-4.328L76.949,30.784z M68.882,48.475    c0.19-0.096,0.345-0.25,0.442-0.44c0.02-0.036,1.854-3.64,3.092-5.747c0.943-1.6,1.957-1.728,2.057-1.738    c0.071-0.01,7.219-0.959,9.228-1.105c0.29-0.02,0.534,0.004,0.755,0.045l-6.609,7.787L75,48.915v-4.533    C75,43.835,74.566,43,74.021,43c-0.004,0-0.01,0-0.015,0c-0.541,0-0.985,0.623-0.999,1.164l-0.141,5.544l-2.954,0.579    c-0.175-0.712-0.601-1.325-1.183-1.736L68.882,48.475z M65.238,50h1.769C67.559,50,68,50.448,68,51v7h-4v-0.598l2.611-0.271    L65.238,50z M68,60v1c0,0.552-0.441,1-0.993,1H64v-2H68z M43.038,53.717l-1.68-1.431l7.253-12.177l0.988,0.571l-0.004,0.095    L43.038,53.717z M45.418,53.443L50.71,43h10.297c0.533,0,1,0.332,1,0.71c0,0.063,0.007,0.127,0.019,0.189L62.816,48l0,0    l1.385,7.173l-11.362,0.923l-0.181-1.055l8.294-1.645c0.272-0.055,0.51-0.22,0.655-0.455c0.146-0.235,0.188-0.522,0.115-0.791    l-1.418-5.166c-0.146-0.533-0.693-0.841-1.229-0.7c-0.533,0.146-0.846,0.696-0.7,1.229l1.133,4.13l-8.196,1.625    c-0.531,0.104-0.882,0.614-0.791,1.148l0.5,2.916c0.049,0.29,0.228,0.52,0.459,0.665h-1.474c-0.552,0-1,0.446-1,1    c0,0.553,0.448,1,1,1H62v2.942c0-0.028-0.572-0.055-0.866-0.055c-2.173,0-4.192,0.781-5.899,2.111h-5.228    C49.475,65,49,64.668,49,64.29V59v-5.58c0-0.336-0.165-0.65-0.446-0.835c-0.166-0.108-0.355-0.165-0.548-0.165    c-0.134,0-0.267,0.025-0.394,0.081L45.418,53.443z M62,57.357V58h-7.902L62,57.357z M46.856,69l-0.8,16H45V70v-1v-2h5.007h3.222    c-0.484,0.614-0.922,1.283-1.305,2H46.856z M61.139,87.369c-4.83,0-8.759-4.992-8.759-11.129s3.929-11.129,8.759-11.129    c4.828,0,8.758,4.992,8.758,11.129S65.967,87.369,61.139,87.369z M69.632,67.791c-1.1-1.631-2.51-2.938-4.12-3.791h1.495    C68.662,64,70,62.654,70,61v-4.602c0,0,0.219-0.018,0.322-0.051l2.389-0.802l-0.109,4.19L69.632,67.791z M84.023,60.389    L81.961,73.45c-0.016,0.1-0.016,0.2-0.002,0.301l2.014,13.812l-1.291-0.049l-2.94-13.644l0.741-8.785    c0.023-0.278-0.07-0.555-0.26-0.761C80.034,64.118,79.768,64,79.486,64H77.9c-0.381,0-0.73,0.218-0.898,0.563l-3.878,7.953    c-0.087,0.18-0.119,0.381-0.091,0.579L75.161,88h-1.024l-2.264-8.965c0.158-0.902,0.246-1.836,0.246-2.795    c0-2.197-0.446-4.266-1.223-6.096l3.64-9.871c0.038-0.103,0.06-0.209,0.062-0.318l0.135-5.086l6.535-2.193    c0.102-0.033,0.198-0.085,0.285-0.15l4.434-3.354l0.002,0.045L84.023,60.389z"/><path d="M62.25,68.409c-3.602,0-6.531,3.513-6.531,7.831s2.93,7.83,6.531,7.83s6.529-3.512,6.529-7.83S65.852,68.409,62.25,68.409    z M62.25,81.85c-2.375,0-4.307-2.518-4.307-5.608s1.932-5.608,4.307-5.608s4.307,2.518,4.307,5.608S64.625,81.85,62.25,81.85z"/><path d="M25.007,17c-3.309,0-6,2.691-6,6s2.691,6,6,6s6-2.691,6-6S28.316,17,25.007,17z M25.007,27c-2.206,0-4-1.794-4-4    s1.794-4,4-4s4,1.794,4,4S27.213,27,25.007,27z"/><path d="M25,15c0.552,0,1-0.447,1-1v-3c0-0.553-0.448-1-1-1s-1,0.447-1,1v3C24,14.553,24.448,15,25,15z"/><path d="M25,31c-0.552,0-1,0.447-1,1v3c0,0.553,0.448,1,1,1s1-0.447,1-1v-3C26,31.447,25.552,31,25,31z"/><path d="M17.937,17.344c0.195,0.195,0.451,0.293,0.707,0.293s0.512-0.098,0.707-0.293c0.391-0.391,0.391-1.023,0-1.414    l-2.122-2.122c-0.391-0.391-1.023-0.391-1.414,0s-0.391,1.023,0,1.414L17.937,17.344z"/><path d="M34.2,30.778l-2.122-2.122c-0.391-0.391-1.023-0.391-1.414,0c-0.391,0.391-0.391,1.023,0,1.414l2.122,2.122    c0.195,0.195,0.451,0.293,0.707,0.293c0.256,0,0.512-0.098,0.707-0.293C34.59,31.802,34.59,31.169,34.2,30.778z"/><path d="M50.786,32.192c0.086,0.086,0.185,0.146,0.289,0.194C51.034,32.587,51,32.79,51,33v2v1v1c0,0.957,0.456,1.883,1.242,2.537    c0.742,0.621,1.723,0.963,2.76,0.963C57.208,40.5,59,38.93,59,37v-1v-1v-2c0-0.957-0.447-1.883-1.234-2.537    c-0.744-0.621-1.723-0.963-2.76-0.963c-1.167,0-2.207,0.446-2.939,1.146l-1.988-1.99c-0.391-0.391-1.023-0.391-1.414,0    c-0.391,0.391-0.391,1.023,0,1.414L50.786,32.192z M53,33c0-0.813,0.92-1.5,2.004-1.5c0.561,0,1.098,0.182,1.479,0.499    C56.816,32.278,57,32.633,57,33v1h-4V33z M53,36h4v1c0,0.813-0.912,1.5-1.996,1.5c-0.563,0-1.102-0.182-1.482-0.499    C53.188,37.722,53,37.367,53,37V36z"/><path d="M17.007,23c0-0.553-0.448-1-1-1h-3c-0.552,0-1,0.447-1,1s0.448,1,1,1h3C16.56,24,17.007,23.553,17.007,23z"/><path d="M33.007,23c0,0.553,0.448,1,1,1h3c0.552,0,1-0.447,1-1s-0.448-1-1-1h-3C33.455,22,33.007,22.447,33.007,23z"/><path d="M17.937,28.656l-2.122,2.122c-0.391,0.391-0.391,1.023,0,1.414c0.195,0.195,0.451,0.293,0.707,0.293    s0.512-0.098,0.707-0.293l2.122-2.122c0.391-0.391,0.391-1.023,0-1.414C18.96,28.265,18.327,28.266,17.937,28.656z"/><path d="M31.371,17.637c0.256,0,0.512-0.098,0.707-0.293l2.122-2.122c0.391-0.391,0.391-1.023,0-1.414    c-0.391-0.391-1.023-0.391-1.414,0l-2.122,2.122c-0.391,0.391-0.391,1.023,0,1.414C30.859,17.539,31.115,17.637,31.371,17.637z"/></g></g></svg>